<?xml version="1.0" encoding="utf-8"?>
<!-- Generator: Adobe Illustrator 25.0.1, SVG Export Plug-In . SVG Version: 6.00 Build 0)  -->
<svg version="1.0" id="katman_1" xmlns="http://www.w3.org/2000/svg" xmlns:xlink="http://www.w3.org/1999/xlink" x="0px" y="0px"
	 viewBox="0 0 560 400" style="enable-background:new 0 0 560 400;" xml:space="preserve">
<style type="text/css">
	.st0{fill-rule:evenodd;clip-rule:evenodd;fill:#010202;}
</style>
<path class="st0" d="M99.5,230.3c1.7,4.6,4.1,8.5,7.2,11.7c3.1,3.2,6.7,5.7,10.8,7.5c4.2,1.7,8.7,2.6,13.6,2.6
	c4.8,0,9.3-0.9,13.4-2.7c4.2-1.8,7.8-4.3,10.9-7.6c3.1-3.2,5.5-7.1,7.3-11.6c1.7-4.5,2.6-9.5,2.6-15.1v-85.9h20.9v139.3h-20.7v-12.9
	c-4.6,4.9-10.1,8.7-16.4,11.3c-6.3,2.7-13.1,4-20.4,4c-7.4,0-14.4-1.3-20.8-3.9c-6.4-2.6-12-6.3-16.7-11
	c-4.7-4.8-8.4-10.5-11.1-17.2c-2.7-6.7-4.1-14.2-4.1-22.4v-87.1h20.9v85.9C96.9,220.7,97.7,225.8,99.5,230.3L99.5,230.3z
	 M222.2,129.2v50.7c4.6-4.6,10-8.3,16.1-11c6.1-2.7,12.7-4.1,19.9-4.1c7.4,0,14.4,1.4,20.9,4.2c6.5,2.8,12.1,6.6,16.9,11.3
	s8.6,10.4,11.3,16.9c2.8,6.5,4.2,13.4,4.2,20.7s-1.4,14.2-4.2,20.6c-2.8,6.4-6.6,12-11.3,16.8c-4.8,4.8-10.4,8.6-16.9,11.3
	c-6.5,2.8-13.5,4.2-20.9,4.2c-7.2,0-13.8-1.4-20-4.1c-6.2-2.7-11.6-6.4-16.2-11v12.7h-19.9V129.2L222.2,129.2L222.2,129.2z
	 M224.5,231.6c1.8,4.2,4.3,8,7.5,11.1c3.2,3.2,6.9,5.7,11.1,7.6c4.2,1.9,8.8,2.8,13.7,2.8c4.8,0,9.3-0.9,13.5-2.8
	c4.2-1.9,7.9-4.4,11-7.6c3.1-3.2,5.6-6.9,7.5-11.1c1.9-4.2,2.8-8.8,2.8-13.7s-0.9-9.5-2.8-13.8c-1.9-4.3-4.3-8.1-7.5-11.2
	c-3.1-3.2-6.8-5.7-11-7.5s-8.8-2.7-13.5-2.7c-4.8,0-9.3,0.9-13.5,2.7c-4.2,1.8-8,4.3-11.1,7.5c-3.2,3.2-5.7,6.9-7.6,11.2
	s-2.8,8.9-2.8,13.8C221.8,222.8,222.7,227.4,224.5,231.6L224.5,231.6z M322.9,197.4c2.7-6.4,6.3-12,10.9-16.8
	c4.6-4.8,10.1-8.7,16.5-11.4c6.4-2.8,13.3-4.2,20.7-4.2c7.3,0,14.1,1.3,20.3,4s11.6,6.3,16.1,11c4.5,4.7,8,10.3,10.5,16.7
	c2.5,6.4,3.8,13.4,3.8,21v6.6h-82.6c0.7,4.1,2,7.9,4,11.4c2,3.5,4.5,6.6,7.5,9.2c3,2.6,6.4,4.6,10.1,6.1s7.8,2.2,12,2.2
	c12.1,0,21.8-5,29.2-14.9l14.5,10.7c-5,6.8-11.3,12.1-18.7,15.9c-7.4,3.8-15.8,5.8-25.1,5.8c-7.6,0-14.6-1.3-21.2-4
	c-6.6-2.7-12.3-6.4-17.1-11.1c-4.8-4.8-8.7-10.4-11.4-16.8c-2.8-6.4-4.2-13.4-4.2-21C318.9,210.5,320.2,203.8,322.9,197.4
	L322.9,197.4z M350.8,189.6c-5.6,4.7-9.4,11-11.2,18.8h61.9c-1.7-7.8-5.4-14.1-11-18.8c-5.6-4.7-12.2-7.1-19.8-7.1
	C363.1,182.5,356.5,184.8,350.8,189.6z M459.3,191.8c-4.2,4.6-6.4,10.9-6.4,18.9v57.7h-20.1V167h19.9v12.5c2.5-4.1,5.8-7.4,9.8-9.7
	c4-2.4,8.9-3.6,14.4-3.6h7v18.7h-8.4C469,184.9,463.6,187.2,459.3,191.8z"/>
</svg>
