<?xml version="1.0" encoding="utf-8"?>
<!-- Generator: Adobe Illustrator 25.0.1, SVG Export Plug-In . SVG Version: 6.00 Build 0)  -->
<svg version="1.0" id="katman_1" xmlns="http://www.w3.org/2000/svg" xmlns:xlink="http://www.w3.org/1999/xlink" x="0px" y="0px"
	 viewBox="0 0 103 72" style="enable-background:new 0 0 103 72;" xml:space="preserve">
<style type="text/css">
	.st0{fill-rule:evenodd;clip-rule:evenodd;fill:#34D186;}
</style>
<path class="st0" d="M72.3,16v30.1h-7.1V17.5L72.3,16z M51.9,48.9c2,0,3.6,1.6,3.6,3.5c0,2-1.6,3.5-3.6,3.5c-2,0-3.6-1.6-3.6-3.5
	C48.4,50.5,50,48.9,51.9,48.9z M51.9,24.5c6.1,0,11,4.9,11,10.9s-4.9,10.9-11,10.9c-6.1,0-11-4.9-11-10.9S45.9,24.5,51.9,24.5z
	 M51.9,39c2,0,3.6-1.6,3.6-3.5c0-2-1.6-3.5-3.6-3.5c-2,0-3.6,1.6-3.6,3.5C48.4,37.4,50,39,51.9,39z M29.5,39c1.2,0,2.2-1,2.2-2.2
	c0-1.2-1-2.2-2.2-2.2h-5.4V39H29.5z M24.1,23.1v4.4h4c1.2,0,2.2-1,2.2-2.2c0-1.2-1-2.2-2.2-2.2H24.1z M36.1,30.2
	c1.7,1.7,2.8,4,2.8,6.6c0,5.1-4.2,9.3-9.4,9.3H17V16h11.1c5.2,0,9.4,4.2,9.4,9.3C37.5,27.1,37,28.8,36.1,30.2z M85.7,32h-3.6v5.6
	c0,1.7,0.5,2.9,2,2.9c0.9,0,1.6-0.2,1.6-0.2v5.2c0,0-1.5,0.9-3.5,0.9h-0.1c-0.1,0-0.2,0-0.3,0h-0.1c0,0-0.1,0-0.1,0
	c-4-0.2-6.7-2.7-6.7-7V21l7.1-1.5v5.4h3.6V32z"/>
</svg>
